<svg width="18" height="18" viewBox="0 0 18 18" fill="none" xmlns="http://www.w3.org/2000/svg">
<path d="M2.25 3.75H3.75H15.75" stroke="#FF4E4E" stroke-width="1.5" stroke-linecap="round" stroke-linejoin="round"/>
<path d="M14.2502 4.5V15C14.2502 15.3978 14.0922 15.7794 13.8109 16.0607C13.5296 16.342 13.1481 16.5 12.7502 16.5H5.25024C4.85242 16.5 4.47089 16.342 4.18958 16.0607C3.90828 15.7794 3.75024 15.3978 3.75024 15V4.5M6.00024 3.375V3C6.00024 2.60218 6.15828 2.22064 6.43958 1.93934C6.72089 1.65804 7.10242 1.5 7.50024 1.5H10.5002C10.8981 1.5 11.2796 1.65804 11.5609 1.93934C11.8422 2.22064 12.0002 2.60218 12.0002 3V3.375" stroke="#FF4E4E" stroke-width="1.5" stroke-linecap="round" stroke-linejoin="round"/>
<path d="M7.49976 7.5V12" stroke="#FF4E4E" stroke-width="1.5" stroke-linecap="round" stroke-linejoin="round"/>
<path d="M10.5002 7.5V12" stroke="#FF4E4E" stroke-width="1.5" stroke-linecap="round" stroke-linejoin="round"/>
</svg>
